<svg xmlns="http://www.w3.org/2000/svg" xmlns:xlink="http://www.w3.org/1999/xlink" width="24" height="24" version="1.1" viewBox="0 0 24 24"><title>crop</title><desc>Created with Sketch.</desc><g id="Icons" fill="none" fill-rule="evenodd" stroke="none" stroke-width="1"><g id="crop" fill="#FFF"><g id="Crop-Icon" transform="translate(4.000000, 4.000000)"><path id="Combined-Shape" d="M0,3 L13,3 L13,4 L0,4 L0,3 Z M12,4 L13,4 L13,11 L12,11 L12,4 Z M3,12 L16,12 L16,13 L3,13 L3,12 Z M3,5 L4,5 L4,12 L3,12 L3,5 Z M3,0 L4,0 L4,2 L3,2 L3,0 Z M12,14 L13,14 L13,16 L12,16 L12,14 Z"/></g></g></g></svg>